{"title":"Step.Up.3D.2010.BRRip. Xvid.AC3-rc","uid":6052692,"size":1134913366,"categoryP":"video","categoryS":"movies","magnet":"?xt=urn:btih:e14b0ea99672ba135789ab21614268c37551698c&amp;dn=Step.Up.3D.2010.BRRip.+Xvid.AC3-rc&amp;tr=udp%3A%2F%2Ftracker.openbittorrent.com%3A80&amp;tr=udp%3A%2F%2Fopen.demonii.com%3A1337&amp;tr=udp%3A%2F%2Ftracker.coppersurfer.tk%3A6969&amp;tr=udp%3A%2F%2Fexodus.desync.com%3A6969","seeders":2,"leechers":0,"uploader":"cable.guy","files":-1,"time":1292793396,"description":"STEP UP 3D\n\n\n\nA tight-knit group of New York City street dancers, including Luke (Malambri) and Natalie (Vinson), team up with NYU freshman Moose (Sevani), and find themselves pitted against the world\\\\\\\\\\\\\\\\\\\\\\\\\\\\\\\\\\\\\\\\\\\\\\\\\\\\\\\\\\\\\\'s best hip hop dancers in a high-stakes showdown that will change their lives forever. Written by Walt Disney Pictures \n\n\n\nGeneral\nComplete name                    : Step Up 3D 2010 BRRip Xvid AC3-rchauhan\nFormat                           : AVI\nFormat/Info                      : Audio Video Interleave\nFile size                        : 1.04 GiB\nDuration                         : 1h 47mn\nOverall bit rate                 : 1 394 Kbps\n\nVideo\nID                               : 0\nFormat                           : MPEG-4 Visual\nFormat profile                   : AdvancedSimple@L5\nFormat settings, BVOP            : Yes\nFormat settings, QPel            : No\nFormat settings, GMC             : No warppoints\nFormat settings, Matrix          : Default (H.263)\nCodec ID                         : XVID\nCodec ID/Hint                    : XviD\nDuration                         : 1h 47mn\nBit rate                         : 999 Kbps\nWidth                            : 720 pixels\nHeight                           : 384 pixels\nDisplay aspect ratio             : 1.875\nFrame rate                       : 23.976 fps\nResolution                       : 24 bits\nColorimetry                      : 4:2:0\nScan type                        : Progressive\nBits/(Pixel*Frame)               : 0.151\nStream size                      : 766 MiB (72%)\nWriting library                  : XviD 1.2.1 (UTC 2008-12-04)\n\nAudio\nID                               : 1\nFormat                           : AC-3\nFormat/Info                      : Audio Coding 3\nCodec ID                         : 2000\nDuration                         : 1h 47mn\nBit rate mode                    : Constant\nBit rate                         : 384 Kbps\nChannel(s)                       : 6 channels\nChannel positions                : Front: L C R, Surround: L R, LFE\nSampling rate                    : 48.0 KHz\nResolution                       : 16 bits\nStream size                      : 294 MiB (28%)\nAlignment                        : Aligned on interleaves\nInterleave, duration             : 32 ms (0.77 video frame)\n\n\n--------------\nnothing is impossible\n\n","torrent":{"xt":"urn:btih:e14b0ea99672ba135789ab21614268c37551698c","amp;dn":"Step.Up.3D.2010.BRRip.+Xvid.AC3-rc","amp;tr":["udp%3A%2F%2Ftracker.openbittorrent.com%3A80","udp%3A%2F%2Fopen.demonii.com%3A1337","udp%3A%2F%2Ftracker.coppersurfer.tk%3A6969","udp%3A%2F%2Fexodus.desync.com%3A6969"],"infoHash":"e14b0ea99672ba135789ab21614268c37551698c","infoHashBuffer":{"type":"Buffer","data":[225,75,14,169,150,114,186,19,87,137,171,33,97,66,104,195,117,81,105,140]},"announce":[],"urlList":[]}}